<!-- icon666.com - MILLIONS vector ICONS FREE --><svg id="Layer_1" enable-background="new 0 0 53 53" viewBox="0 0 53 53" xmlns="http://www.w3.org/2000/svg"><g id="_x32_4"><g><g><g><path d="m25.5037098 50.485672h-18.5060716c0-.4889145-.0000038-12.3906937-.0000038-12.0560951-1.971796.0576553-3.6015017-1.5250931-3.6015017-3.4977341v-5.1041222c0-3.5419178 2.8712909-6.413208 6.413208-6.413208h13.7672491c3.5419159 0 6.4132061 2.8712902 6.4132061 6.413208v8.8142128l-4.4860859-.7519188v12.5956574z" fill="#e83d62"></path></g></g><g><g><path d="m27.7464046 40.705925h.0000038c1.2390137 0 2.243433-1.0044174 2.243433-2.2434311v-8.6347446c0-2.8679485-1.895237-5.2674866-4.4919853-6.0877228l.0051155 14.7232456c.0004311 1.2387085 1.0047246 2.2426529 2.243433 2.2426529z" fill="#ce2955"></path></g></g><g><g><path d="m6.981071 24.1002197v16.6057053h-2.6804667c-1.0142763-.0603561-1.8111498-.9055748-1.8111498-1.9319382v-8.5883293c0-2.8736973 1.8956792-5.2643909 4.4916165-6.0854378z" fill="#ce2955"></path></g></g><g><g><path d="m8.47 9.452h1.438v4.666h-1.438z" fill="#8b4f4f"></path></g></g><g><g><path d="m22.924 8.394h1.438v5.724h-1.438z" fill="#8b4f4f"></path></g></g><g><g><g><g><g><g><path d="m19.9714355 21.1506824v2.8523521c0 .9799404-.4024429 1.872303-1.0499001 2.519865-.6474552.6474552-1.5399227 1.0498981-2.519865 1.0498981-1.9598827 0-3.5698709-1.5923634-3.5698709-3.5697632v-2.8523521h7.139636z" fill="#ffaf93"></path></g></g><g><g><path d="m16.769186 21.3781796c-1.5753078 0-2.8523483 1.2770386-2.8523483 2.8523483v.0000019c0 1.5224075.9624262 2.8348351 2.3097782 3.342268-1.8723021-.0874729-3.3948164-1.6449127-3.3948164-3.5697632v-2.8523521h7.139636v.2274971z" fill="#ee8778"></path></g></g><g><g><path d="m19.9714355 21.1506824v1.7323876c-1.0674152.6474552-2.2923698.9799423-3.5697651.9799423-1.2949114 0-2.519865-.3500023-3.5698709-.9624252v-1.7499046h7.139636z" fill="#ee8778"></path></g></g><g><g><path d="m9.86448 8.1021709v8.6929054c0 .2061195.0073681.4121933.0294714.6109447.2434797 3.1686993 2.9888077 5.9253006 6.4994068 5.9253006 1.8033638 0 3.4374485-.7286949 4.6224995-1.9137459 1.185051-1.1850967 1.9137459-2.8191357 1.9137459-4.6224995v-8.6929053z" fill="#ffaf93"></path></g></g><g><g><path d="m23.3138103 12.8561573v3.9372826c0 .20998-.0175152.4024448-.0350323.5949078-.1225052.0175171-.2274952.0350323-.3500023.0350323v-4.602255c.1225072 0 .2625295.0175162.3850346.0350323z" fill="#ee8778"></path></g></g><g><g><path d="m17.1190834 23.2855129c-.2274952.0350323-.4724007.0525494-.7174129.0525494-3.5689802 0-6.3190947-2.8860588-6.509696-5.9321976-.0174093-.1924648-.0349255-.4024448-.0349255-.6124249v-8.6970748h1.4873753v8.6970749c0 .20998 0 .41996.0175161.6124249.4255876 3.4008063 2.9176712 5.5582046 5.757143 5.8796481z" fill="#ee8778"></path></g></g><g><g><path d="m7.5632191 15.1180744c0 1.2810841 1.0274687 2.3084755 2.3084764 2.3084755v-4.6042557c-1.2810077 0-2.3084764 1.0273915-2.3084764 2.2957802z" fill="#ee8778"></path></g></g><g><g><path d="m25.2386627 15.1134949c0 1.1548882-.8574371 2.1174221-1.9598846 2.2748528.0175171-.1924629.0350323-.3849277.0350323-.5949078v-3.9372826c1.0849323.1749477 1.9248523 1.1198578 1.9248523 2.2573376z" fill="#ffaf93"></path></g></g><g><g><path d="m23.3138103 12.8561573v3.9372826c0 .20998-.0175152.4024448-.0350323.5949078-.1225052.0175171-.2274952.0350323-.3500023.0350323v-4.602255c.1225072 0 .2625295.0175162.3850346.0350323z" fill="#ee8778"></path></g></g><g><g><g><g><path d="m15.8795977 15.9180098v.9331502c0 .3167858.2564726.5732536.5732546.5732536.3167858 0 .5732574-.2564678.5732574-.5732536v-.9331503c0-.316782-.2564716-.5732546-.5732574-.5732546-.3199845.0000001-.5732546.2604972-.5732546.5732547z" fill="#ee8778"></path></g></g></g><g><g><path d="m18.4438095 18.8959007c-.2045021.9404182-1.0406456 1.6451321-2.0423203 1.645134-1.0016823.0000038-1.8378181-.7047062-2.0423222-1.6451244z" fill="#ee8778"></path></g></g></g><g><g><g><path d="m18.2469273 13.6215849c.1318989-.6065321.6711884-1.0610437 1.3172398-1.0610437.6460571 0 1.1853409.4545116 1.3172379 1.0610437z" fill="#312e4b"></path></g></g><g><g><path d="m11.9127235 13.6215849c.1318979-.6065321.6711874-1.0610437 1.3172388-1.0610437.6460571 0 1.1853409.4545116 1.3172398 1.0610437z" fill="#312e4b"></path></g></g></g></g></g></g></g><g><g><path d="m9.9083939 9.4518518c6.8319912 2.7884235 11.954937 2.8146019 14.4540081-.6317644l-.0047875-1.4988804c0-.9730124-.3194008-1.94068-.9847374-2.6506648-.7310772-.7801332-1.9395657-1.3879673-3.8492184-.6987696-2.1403522-1.2728779-4.347106-1.6570919-6.6043997-1.3647323-2.5460386.3297575-4.451478 2.5065265-4.451479 5.0738316l.0047855 1.7709799z" fill="#ab604b"></path></g></g><g><g><path d="m11.3531828 3.0904918c-1.7183962.8360746-2.885354 2.5877938-2.885354 4.5903993l.0046988 1.7709436h1.435895c.4975004.2030382.9657364.3595085 1.4447603.5329609v-6.8943038z" fill="#8b4f4f"></path></g></g><g><g><path d="m33.7189407 37.2946014-4.661005 2.9839287c-1.0028534.7272758-2.4054012.5038795-3.1326809-.4989738l-.0000019-.0000038c-.7272778-1.0028534-.5038815-2.4054031.4989719-3.132679l4.661005-2.9839287z" fill="#ce2955"></path></g></g></g><g><g><g><path d="m20.3698578 28.4464149-2.9053516 13.4860268c-.147768.6859131.3749771 1.3332672 1.0766239 1.3332672h8.9111004c.5223579 0 .9728603-.3669434 1.0785465-.8785019l2.7692299-13.4041138c.1403389-.6792927-.3746586-1.3176231-1.0682659-1.3240986l-8.7749805-.081913c-.5226975-.0048808-.9768182.3583375-1.0869027.8693333z" fill="#312e4b"></path></g></g></g><g><g><path d="m20.9414482 29.0180073-2.9053516 13.4860287c-.147768.6859093.3749771 1.3332634 1.0766239 1.3332634h8.9111004c.5223598 0 .9728622-.3669434 1.0785465-.8785019l2.7692318-13.4041119c.140337-.6792946-.3746586-1.317625-1.0682678-1.3240986l-8.7749805-.0819149c-.5226975-.004879-.9768162.3583374-1.0869027.8693352z" fill="#5b5e8b"></path></g></g><g><g><path d="m29.0399609 30.7794628-.177187.8559036c-.0925541.4470806-.4863529.7677059-.9429131.7677059h-.0053864c-.6142826 0-1.0718193-.5669327-.942112-1.1673641l.1843166-.8532085c.09659-.4471188.4943409-.7646255.9517479-.7597351h.0000019c.6053449.0064697 1.0542547.5638885.9315321 1.1566982z" fill="#312e4b"></path></g></g><g><g><circle cx="31.895" cy="35.624" fill="#ffaf93" r="3.008"></circle></g></g><g><g><path d="m34.4704285 37.1820869c-.2073593.3361435-.4699059.6327095-.8090172.8786354-1.3476868.977356-3.2290516.6699982-4.2001343-.6690407-.977356-1.3476906-.6786976-3.2227402.6689911-4.2000999.0608692-.0441437.1304436-.0945969.1976261-.1300392-.6046619.9957275-.5914555 2.3129196.1400127 3.3215523.9332123 1.2868194 2.6811142 1.6113624 4.0025216.7989921z" fill="#ee8778"></path></g></g><g><g><g><path d="m14.1005421 36.1840858v4.4916916h-9.695725c-.0482707 0-.0966153 0-.1328001-.0120888-1.0142763-.0603561-1.8111501-.9055748-1.8111501-1.9319344v-2.5476685h11.6396752z" fill="#ce2955"></path></g></g><g><g><circle cx="14.26" cy="38.429" fill="#ffaf93" r="3.008"></circle></g></g><g><g><path d="m15.4303827 41.2021637c-.3652086.1503868-.7518549.2363281-1.1707535.2363281-1.6647797 0-3.0073547-1.3533249-3.0073547-3.0074196 0-1.6647797 1.3425751-3.0073547 3.0073547-3.0073547.0751915 0 .1611347 0 .2363272.0107498-1.0740604.451088-1.8366661 1.5251465-1.8366661 2.7710953 0 1.5895882 1.2244434 2.8784714 2.7710924 2.9966011z" fill="#ee8778"></path></g></g></g><g><g><path d="m50.5391312 7.7557597v9.007822c0 1.9301414-1.5646858 3.4948292-3.4948273 3.4948292h-8.9902916c-.2866936 0-.5521545.1511211-.6985092.397644l-1.8086357 3.0465202c-.3147583.5301895-1.0822487.5301933-1.3970146.0000076l-1.8086853-3.0465355c-.1463547-.2465172-.4118137-.3976364-.6985035-.3976364h.3279648c-1.9359779 0-3.5053978-1.5694199-3.5053978-3.5053978v-8.9972533c0-1.9301052 1.5646591-3.4947648 3.4947643-3.4947648h15.0737419c1.9332924 0 3.505394 1.5721026 3.505394 3.4947648z" fill="#deddff"></path></g></g><g><g><g><g><path d="m47.4273796 13.7307615c0 1.606205-1.3041344 2.8728724-2.8729134 2.8728724h-10.2198143c-1.5728188 0-2.8729153-1.2768965-2.8729153-2.8728724 0-.8055964.3295631-1.5279903.8588924-2.0506353.4294472-.4194288.9886818-.7090645 1.6145668-.7955999v-.0466099c0-1.5267258 1.4900017-2.6086273 2.9460564-2.1305265.575901-1.381496 1.9407959-2.35356 3.5320358-2.35356 2.1079216 0 3.8249435 1.7089486 3.8249435 3.824964 0 .2396736-.0199928.4760351-.0632286.7024002 1.7181131-.2260828 3.2523767 1.1089401 3.2523767 2.8495674z" fill="#65b9ff"></path></g></g></g><g><g><g><path d="m41.1603317 6.4308066c-1.2690392.2420864-2.3106804 1.1150222-2.7948532 2.2740111-1.457756-.4701319-2.9488716.596839-2.9488716 2.1346788v.0440121c-.6235504.0880232-1.1883621.3741217-1.6138382.7995529-.528183.5208426-.8582497 1.2397146-.8582497 2.0466557 0 1.0783081.5941811 2.0172834 1.4671173 2.5087547.4408112.2463646.9623604.3667793 1.4010773.3667793h-1.4744606c-1.5979881 0-2.8755341-1.2954741-2.8755341-2.8755341 0-.806941.3301105-1.5258131.8582497-2.0466557.4254761-.4254313.9903297-.7115297 1.6138382-.7995529v-.0440121c0-1.5378923 1.4912758-2.6047745 2.9489174-2.1346788.5721512-1.3790922 1.9365578-2.3473492 3.5284119-2.3473492.2567253.0000002.5061569.0219838.7481956.0733382z" fill="#3e7fff"></path></g></g></g><g><g><g><path d="m39.2957916 13.5248804-1.020546 1.1980362c-.1489754.1774874-.4215431.1774874-.5705147 0l-1.0205498-1.1980362c-.2060204-.2440529-.0348587-.6180439.2852554-.6180439h.2820663v-1.9262199c0-.1323061.107254-.239562.239563-.239562h.9978447c.1323051 0 .2395592.1072559.2395592.239562v1.9262199h.2820663c.3201143 0 .4944498.373991.2852556.6180439z" fill="#e83d62"></path></g></g><g><g><path d="m38.3882713 14.6008186-.1100502.1247368c-.1540642.1760464-.4254761.1760464-.572197 0l-1.0196114-1.2030458c-.2054176-.2420864-.0367165-.6162081.2860527-.6162081h.2787552v-1.9292612c0-.1320353.1100502-.2346992.2420845-.2346992h.7849159c-.1320381 0-.2420883.102664-.2420883.2346992v1.9292612h-.2787552c-.3227692 0-.4914703.3741217-.2860527.6162081z" fill="#ce2955"></path></g></g><g><g><path d="m39.8382225 12.0722075 1.0205498-1.1980371c.1489716-.1774874.4215393-.1774874.5705109 0l1.0205498 1.1980371c.2060242.2440529.0348587.6180439-.2852554.6180439h-.2820663v1.9262199c0 .1323061-.107254.2395611-.2395592.2395611h-.9978447c-.132309 0-.239563-.107255-.239563-.2395611v-1.9262199h-.2820663c-.3201143 0-.4944498-.3739911-.2852556-.6180439z" fill="#fcb73e"></path></g></g><g><g><path d="m41.5345802 14.8575907h-.8876228c-.1320343 0-.2420425-.1100521-.2420425-.2420864v-1.9219189h-.2787552c-.3227654 0-.4988136-.3741217-.2860985-.6235056l1.0196571-1.1957035c.1467209-.1760464.4181328-.1760464.5721512 0l.1614075.1833897-.865593 1.0123138c-.2127609.2493839-.0367126.6235056.2787552.6235056h.2860527v1.9219189c0 .1320343.110054.2420864.2420883.2420864z" fill="#e87f21"></path></g></g></g></g></g></svg>