<?xml version="1.0" standalone="no"?>
<!DOCTYPE svg PUBLIC "-//W3C//DTD SVG 20010904//EN"
 "http://www.w3.org/TR/2001/REC-SVG-20010904/DTD/svg10.dtd">
<svg version="1.0" xmlns="http://www.w3.org/2000/svg"
 width="722.000000pt" height="346.000000pt" viewBox="0 0 722.000000 346.000000"
 preserveAspectRatio="xMidYMid meet">

<g transform="translate(0.000000,346.000000) scale(0.100000,-0.100000)"
fill="#000000" stroke="none">
<path d="M1800 2189 l0 -30 -45 7 -45 6 0 -91 c0 -59 -4 -91 -11 -91 -10 0
-65 -22 -99 -39 -12 -7 -15 -42 -18 -205 -1 -126 1 -196 8 -196 6 0 11 73 12
193 3 163 5 192 18 192 13 0 15 -35 18 -242 l2 -243 355 0 355 0 0 245 c0 211
2 245 15 245 13 0 15 -36 15 -260 l0 -259 -390 0 -390 0 0 39 c0 22 -5 40 -11
40 -6 0 -9 -19 -7 -47 l3 -48 408 -2 407 -3 0 273 0 273 -50 22 c-49 22 -50
22 -50 67 0 42 -2 45 -27 45 -54 0 -141 -27 -207 -63 -57 -32 -66 -34 -66 -19
0 70 -68 173 -134 203 -57 26 -66 24 -66 -12z m116 -51 c55 -60 59 -77 62
-318 l3 -225 -29 41 c-32 44 -73 77 -109 88 -23 7 -23 7 -23 242 l0 234 38
-19 c20 -10 47 -30 58 -43z m-118 -215 l2 -211 29 -5 c41 -8 96 -59 121 -112
32 -66 21 -72 -33 -16 -44 45 -89 74 -159 100 l-28 11 0 223 c0 123 3 226 6
229 3 3 17 3 32 -1 l27 -7 3 -211z m493 62 c3 -39 6 -60 7 -47 1 12 9 22 17
22 13 0 15 -31 15 -221 l0 -222 -46 7 c-26 3 -72 6 -103 7 l-56 1 35 13 c19 7
52 14 72 14 70 2 68 -3 66 165 l-2 151 -3 -142 -4 -141 -69 -12 c-38 -6 -101
-27 -140 -46 -40 -19 -74 -34 -76 -34 -2 0 -3 102 -2 227 l3 227 61 38 c57 36
165 70 204 65 11 -2 16 -20 21 -72z m-579 -166 l3 -150 52 -18 c64 -22 119
-59 157 -107 l29 -36 -34 8 c-19 5 -85 9 -146 8 l-113 0 0 217 c0 230 -2 221
42 228 4 0 9 -67 10 -150z m213 -329 l40 -18 -153 -1 c-119 -1 -153 2 -150 12
7 18 106 37 168 31 30 -3 73 -14 95 -24z m383 9 c55 -21 18 -29 -130 -29 -143
1 -151 2 -125 16 59 32 187 38 255 13z"/>
<path d="M3601 2071 c-6 -11 -11 -33 -11 -50 0 -24 -4 -31 -20 -31 -15 0 -20
-7 -20 -25 0 -18 5 -25 19 -25 17 0 19 -11 23 -135 4 -157 12 -173 92 -182 44
-5 46 -5 46 21 0 20 -5 26 -23 26 -42 0 -47 17 -47 147 l0 123 35 0 c31 0 35
3 35 25 0 22 -4 25 -34 25 -34 0 -35 1 -38 48 -3 40 -6 47 -25 50 -14 2 -26
-4 -32 -17z"/>
<path d="M2555 1979 c-42 -24 -45 -37 -45 -202 l0 -158 28 3 27 3 3 144 c1 86
7 150 14 158 12 15 115 18 138 3 12 -7 16 -39 18 -160 l3 -151 27 3 27 3 3
152 c2 148 2 152 -22 180 -23 26 -30 28 -113 31 -53 1 -96 -2 -108 -9z"/>
<path d="M2933 1978 c-36 -18 -45 -57 -41 -188 3 -119 4 -122 31 -146 24 -21
38 -24 103 -24 107 0 154 29 154 93 0 48 -54 45 -64 -4 -5 -29 -6 -29 -74 -29
-40 0 -73 5 -80 12 -8 8 -12 49 -12 118 0 69 4 110 12 118 7 7 39 12 75 12 71
0 87 -15 81 -73 -3 -32 -3 -32 -66 -35 -59 -3 -63 -5 -60 -25 3 -21 8 -22 93
-22 l90 0 3 70 c3 77 -7 107 -45 124 -30 14 -171 13 -200 -1z"/>
<path d="M3243 1974 c-3 -9 -2 -22 3 -29 32 -42 84 -126 84 -136 0 -6 -23 -45
-51 -86 -41 -60 -48 -77 -38 -89 18 -22 47 -16 63 14 8 15 27 44 44 64 l29 37
20 -22 c11 -12 33 -41 48 -64 29 -44 61 -56 72 -27 7 19 -14 62 -63 126 l-35
47 51 76 c52 76 58 105 21 105 -12 0 -37 -23 -67 -61 -25 -33 -50 -57 -53 -52
-4 4 -24 32 -45 61 -39 53 -71 67 -83 36z"/>
<path d="M3800 1971 c-6 -12 -10 -99 -10 -213 0 -205 6 -234 46 -226 18 3 19
15 22 206 l2 202 75 0 c63 0 76 -3 85 -19 14 -28 13 -214 -2 -229 -7 -7 -30
-12 -52 -12 -50 0 -69 -11 -64 -36 3 -16 13 -19 70 -19 57 0 70 4 92 24 25 24
26 28 26 152 0 70 -3 135 -6 144 -13 33 -59 45 -168 45 -94 0 -106 -2 -116
-19z"/>
<path d="M4228 1974 c-63 -34 -65 -132 -3 -108 8 4 15 14 15 24 0 34 28 50 85
50 66 0 87 -17 83 -69 l-3 -36 -98 -5 c-119 -6 -137 -20 -137 -102 0 -62 11
-83 51 -97 49 -17 138 -14 145 4 11 28 -16 45 -71 45 -55 0 -65 8 -65 50 0 37
27 50 106 50 l74 0 0 -81 0 -80 28 3 27 3 3 140 c1 77 0 150 -3 163 -10 39
-61 62 -140 62 -42 -1 -81 -7 -97 -16z"/>
<path d="M4598 1974 c-37 -20 -52 -78 -45 -179 5 -71 8 -82 32 -103 23 -20 36
-22 94 -20 58 3 66 5 66 23 0 17 -8 20 -50 23 -27 2 -55 8 -62 14 -17 14 -18
179 -1 196 7 7 38 12 69 12 87 0 89 -4 89 -180 0 -142 -1 -150 -22 -164 -43
-31 -141 -15 -151 23 -3 14 -13 21 -30 21 -46 0 -42 -61 7 -91 24 -15 50 -19
114 -19 79 0 85 2 113 29 l29 29 0 172 0 172 -29 29 c-28 27 -34 29 -113 29
-53 -1 -93 -6 -110 -16z"/>
<path d="M4969 1961 c-29 -29 -29 -30 -29 -155 0 -118 1 -127 24 -153 23 -26
30 -28 113 -31 84 -4 91 -2 120 22 38 32 50 73 28 95 -19 20 -47 5 -55 -30 -5
-22 -11 -24 -78 -27 -71 -3 -72 -2 -83 25 -16 42 -8 211 11 223 22 14 124 12
138 -2 7 -7 12 -31 12 -55 l0 -43 -60 0 c-57 0 -60 -1 -60 -25 0 -25 1 -25 83
-25 51 0 88 5 95 12 14 14 16 106 2 142 -15 40 -58 56 -150 56 -77 0 -83 -2
-111 -29z"/>
</g>
</svg>
