<!-- icon666.com - MILLIONS vector ICONS FREE --><svg id="Layer_1" enable-background="new 0 0 53 53" viewBox="0 0 53 53" xmlns="http://www.w3.org/2000/svg"><g id="_x33_9"><g><g><path d="m32.8756981 49.1884575h-17.0499868c2.2799692-1.539978 3.6699839-3.1499634 4.0499887-4.8199463.1699829-.6700439.1599731-1.3600464-.0200195-2.0600586h8.9799805c-.1799927.7000122-.1900024 1.3900146-.0199585 2.0600586.3800048 1.6699829 1.7799682 3.2799683 4.0599956 4.8199463z" fill="#5b5e8b"></path></g></g><g><g><path d="m28.8157024 44.3685112h-3.3818245c-1.9723835 0-3.8560677.8529205-5.1106491 2.3748703-.6865311.83284-1.6279125 1.6483269-2.8075142 2.445076h-1.6900034c2.2799692-1.539978 3.6699839-3.1499634 4.0499887-4.8199463.1699829-.6700439.1599731-1.3600464-.0200195-2.0600586h8.9799805c-.1799926.7000122-.1900024 1.3900147-.0199585 2.0600586z" fill="#312e4b"></path></g></g><g><g><path d="m40.0720291 43.3636169h-31.7089586c-3.2936296 0-5.963644-2.6700134-5.963644-5.9636421v-20.843708c0-3.2936296 2.6700141-5.963644 5.963644-5.963644h31.7089577c3.2936287 0 5.9636421 2.6700144 5.9636421 5.963644v20.843708c.0000009 3.2936287-2.6700125 5.9636421-5.9636412 5.9636421z" fill="#5b5e8b"></path></g></g><g><g><path d="m14.4256868 43.3685112h-6.0599975c-3.2999873 0-5.9700313-2.6700439-5.9700313-5.9700317v-20.840025c0-3.2999887 2.6700439-5.9699717 5.9700313-5.9699717h6.0599976c-3.289978 0-5.960022 2.6699829-5.960022 5.9699717v20.8400249c0 3.2999879 2.6700439 5.9700318 5.9600219 5.9700318z" fill="#312e4b"></path></g></g><g><g><path d="m8.3633089 37.3637505c-1.0830073 0-1.9638667-.8808594-1.9638667-1.9638672v-18.8437481c0-1.0825205.8808594-1.9633799 1.9638667-1.9633799h31.7084951c1.0830078 0 1.9638672.8808594 1.9638672 1.9633799v18.8437481c0 1.0830078-.8808594 1.9638672-1.9638672 1.9638672z" fill="#deddff"></path></g></g><g><g><g><path d="m34.2724876 49.9423637h-19.6166982c-.4140625 0-.75-.3359375-.75-.75s.3359375-.75.75-.75h19.6166992c.4140625 0 .75.3359375.75.75s-.3359385.75-.750001.75z" fill="#312e4b"></path></g></g></g><g><g><circle cx="24.351" cy="40.447" fill="#312e4b" r="1.469"></circle></g></g><g><g><g><path d="m16.3306293 17.6677074h-7.36417c-.3068409 0-.5557871-.2489452-.5557871-.5557861s.2489462-.5557861.5557871-.5557861h7.3641701c.306839 0 .5557861.2489452.5557861.5557861s-.2489472.5557861-.5557862.5557861z" fill="#b5b5ea"></path></g></g></g><g><g><g><path d="m13.4127502 20.1868305h-4.446291c-.3068409 0-.5557871-.2489452-.5557871-.5557861 0-.306839.2489462-.5557861.5557871-.5557861h4.446291c.3068399 0 .5557861.2489471.5557861.5557861.0000001.3068409-.2489461.5557861-.5557861.5557861z" fill="#b5b5ea"></path></g></g></g><g><g><g><path d="m12.2256746 23.0684643v11.4000225c0 .2799683-.2199707.5-.5.5-.2699585 0-.5-.2200317-.5-.5v-11.4000225c0-.2699585.2300415-.5.5-.5.2800293 0 .5.2300415.5.5z" fill="#5b5e8b"></path></g></g></g><g><g><path d="m11.226 24.968h1v7.4h-1z" fill="#312e4b"></path></g></g><g><g><path d="m12.707365 30.8726864h-1.9567719c-.3424025 0-.6199741-.2775726-.6199741-.6199741v-3.1650219c0-.3424034.2775717-.6199741.6199741-.6199741h1.9567719c.3424025 0 .6199741.2775707.6199741.6199741v3.1650219c.0000001.3424015-.2775716.6199741-.6199741.6199741z" fill="#e83d62"></path></g></g><g><g><path d="m11.6856966 30.8685131h-.9400024c-.3400269 0-.6199951-.2700195-.6199951-.6200562v-3.1599731c0-.3400269.2799683-.6199951.6199951-.6199951h.9400024c-.3400269 0-.6199951.2799683-.6199951.6199951v3.1599731c0 .3500367.2799682.6200562.6199951.6200562z" fill="#ce2955"></path></g></g><g><g><g><path d="m18.3663006 23.0684643v11.4000225c0 .2799683-.2199707.5-.5.5-.2699585 0-.5-.2200317-.5-.5v-11.4000225c0-.2699585.2300415-.5.5-.5.2800293 0 .5.2300415.5.5z" fill="#5b5e8b"></path></g></g></g><g><g><path d="m17.366 26.281h1v7.4h-1z" fill="#312e4b"></path></g></g><g><g><path d="m18.84799 32.1851883h-1.9567719c-.3424015 0-.6199741-.2775745-.6199741-.619976v-3.1650219c0-.3424034.2775726-.6199741.6199741-.6199741h1.9567719c.3424015 0 .6199741.2775707.6199741.6199741v3.1650219c.0000001.3424015-.2775726.619976-.6199741.619976z" fill="#46cc6b"></path></g></g><g><g><path d="m17.8263226 32.1810112h-.9400024c-.3400269 0-.6199951-.2700176-.6199951-.6200542v-3.1599731c0-.3400269.2799683-.6199951.6199951-.6199951h.9400024c-.3400269 0-.6199951.2799683-.6199951.6199951v3.1599731c-.0000001.3500366.2799682.6200542.6199951.6200542z" fill="#34ba5d"></path></g></g><g><g><g><path d="m24.5850506 23.0684643v11.4000225c0 .2799683-.2199707.5-.5.5-.2699585 0-.5-.2200317-.5-.5v-11.4000225c0-.2699585.2300415-.5.5-.5.2800293 0 .5.2300415.5.5z" fill="#5b5e8b"></path></g></g></g><g><g><path d="m23.585 24.239h1v7.4h-1z" fill="#312e4b"></path></g></g><g><g><path d="m25.06674 30.1435204h-1.9567719c-.3424015 0-.6199741-.2775726-.6199741-.6199741v-3.1650219c0-.3424034.2775726-.619976.6199741-.619976h1.9567719c.3424015 0 .6199741.2775726.6199741.619976v3.1650219c.0000001.3424014-.2775726.6199741-.6199741.6199741z" fill="#f879ca"></path></g></g><g><g><path d="m24.0450726 30.1393452h-.9400024c-.3400269 0-.6199951-.2700195-.6199951-.6200562v-3.1599731c0-.3400269.2799683-.6199951.6199951-.6199951h.9400024c-.3400269 0-.6199951.2799683-.6199951.6199951v3.1599731c-.0000001.3500366.2799682.6200562.6199951.6200562z" fill="#f44aaf"></path></g></g><g><g><g><path d="m30.9015942 23.0684643v11.4000225c0 .2799683-.2199707.5-.5.5-.2699585 0-.5-.2200317-.5-.5v-11.4000225c0-.2699585.2300415-.5.5-.5.2800293 0 .5.2300415.5.5z" fill="#5b5e8b"></path></g></g></g><g><g><path d="m29.902 26.406h1v7.4h-1z" fill="#312e4b"></path></g></g><g><g><path d="m31.3832836 32.3101883h-1.9567719c-.3424015 0-.6199741-.2775726-.6199741-.619976v-3.1650219c0-.3424034.2775726-.6199741.6199741-.6199741h1.9567719c.3424034 0 .6199741.2775707.6199741.6199741v3.1650219c.0000001.3424034-.2775707.619976-.6199741.619976z" fill="#fcb73e"></path></g></g><g><g><path d="m30.3616161 32.3060112h-.9400024c-.3400269 0-.6199951-.2700195-.6199951-.6200542v-3.1599731c0-.3400269.2799683-.6199951.6199951-.6199951h.9400024c-.3400269 0-.6199951.2799683-.6199951.6199951v3.1599731c0 .3500347.2799683.6200542.6199951.6200542z" fill="#fd982e"></path></g></g><g><g><g><path d="m37.2047806 23.0714054v11.4000225c0 .2799683-.2199707.5-.5.5-.2699585 0-.5-.2200317-.5-.5v-11.4000225c0-.2699585.2300415-.5.5-.5.2800293 0 .5.2300415.5.5z" fill="#5b5e8b"></path></g></g></g><g><g><path d="m36.205 23.784h1v7.4h-1z" fill="#312e4b"></path></g></g><g><g><path d="m37.68647 29.6881275h-1.9567719c-.3424034 0-.6199722-.2775726-.6199722-.6199741v-3.1650219c0-.3424034.2775688-.6199741.6199722-.6199741h1.9567719c.3424034 0 .619976.2775707.619976.6199741v3.1650219c.0000001.3424015-.2775726.6199741-.619976.6199741z" fill="#65b9ff"></path></g></g><g><g><path d="m36.6648026 29.6839542h-.9400024c-.3400269 0-.6199951-.2700195-.6199951-.6200562v-3.1599731c0-.3400269.2799683-.6199951.6199951-.6199951h.9400024c-.3400269 0-.6199951.2799683-.6199951.6199951v3.1599731c-.0000001.3500367.2799682.6200562.6199951.6200562z" fill="#3e7fff"></path></g></g><g><g><path d="m50.5945969 11.0819864c.1323814 2.7795181-1.094162 5.2767172-3.0707245 6.8915186-1.2794838 1.0500546-2.8766212 1.7294636-4.6237488 1.8794556-.1235504.0088329-.238266.0706062-.3264847.1588783-1.3500938 1.3412075-2.9383965 1.614748-3.7501869 1.6589108-.2029877.0087795-.3176498-.2294312-.1941528-.3882561.4500313-.5735798.6176872-1.0942173.6441841-1.5354156.0087776-.2293777-.1323814-.4323673-.3441467-.5205841-3.0266151-1.2706547-5.1532211-4.2619934-5.1532211-7.7563047 0-4.7208018 3.9002304-8.5415955 8.6651421-8.409215 2.3118782.0617743 4.4296532 1.1118288 5.9209061 2.7354093 1.3059271 1.4207 2.1442183 3.2648796 2.2324332 5.2856029z" fill="#fcb73e"></path></g></g><g><g><path d="m40.9147301 19.7470779c-.0264969.4411983-.1941566.9618359-.6529655 1.5354156-.0264969.0352764-.0441628.0705528-.0529404.1146622-.5647469.1853218-1.0765533.2559299-1.4383125.2735939-.2029877.0087795-.3264847-.2294312-.1941566-.3882561.4500313-.5735798.617691-1.0942173.6441879-1.5354156.0087776-.2293777-.1412125-.4323673-.3529816-.5205841-3.0266151-1.2706547-5.1443901-4.2619934-5.1443901-7.7563047 0-4.7208018 3.9002342-8.5415955 8.6563148-8.409215.2029877.0088327.414753.0176651.6176872.0441091-4.2531586.4147546-7.5797615 4.0061169-7.5797615 8.3651056 0 3.4943113 2.1177216 6.4856501 5.1443367 7.7563047.2117691.0882171.3618126.2912067.3529816.5205844z" fill="#fd982e"></path></g></g><g opacity=".3"><g><g><path d="m50.5945969 11.0819864c.1323814 2.7795181-1.094162 5.2767172-3.0707245 6.8915186-2.4973755-1.6650028-5.0387917-3.8224964-4.3854866-6.8209658.5459366-2.5854015 3.4607849-3.8686709 5.2237778-5.3561559 1.3059272 1.4207002 2.1442184 3.2648798 2.2324333 5.2856031z" fill="#fff"></path></g></g></g><g><g><path d="m42.6639061 11.1553268v-2.5752382c.5527878.0292988 1.0771446.1305504 1.5575485.2998772.2614212.105094.4798431.0351896.6187134-.1283951.2424965-.2886353.2037468-.7772541-.2318001-.9328079-.56744-.2167215-1.2214851-.344686-1.9444618-.3817401v-.7091918c0-.2595429-.2062416-.4446826-.4466896-.4437838-.2432938.0009093-.4314003.1905642-.4314003.4437838v.7247028c-1.6834755.1714134-2.5653267 1.2367668-2.5653267 2.4265919 0 1.433238 1.1832275 1.9495573 2.5653267 2.3218927v2.4847574c-.6342239-.0392075-1.2499199-.1895771-1.8307152-.4472303-.2119675-.0940809-.48283-.0741186-.658783.1184864-.2873497.3112946-.1556702.7952385.2201691.951334.702301.2994461 1.4653473.4812679 2.2693291.5415888v.7346115c0 .27248.1928749.433012.4330139.433012.2734985 0 .445076-.1941357.445076-.433012v-.7341814c1.7975807-.133666 2.6566696-1.1964388 2.6566696-2.3137064 0-1.5430937-1.1526184-2.0186462-2.6566696-2.3813515zm1.4450951 2.3124142c0 .7264261-.4730797 1.1245394-1.4450951 1.2154503v-2.2611427c.6375656.1812467 1.4450951.4078855 1.4450951 1.0456924zm-2.323185-4.8432741v2.3128452c-.6809349-.1911507-1.3416901-.4383373-1.3416901-1.1387568 0-.7101077.6440964-1.0597162 1.3416901-1.1740884z" fill="#fff"></path></g></g></g></svg>