<!-- icon666.com - MILLIONS vector ICONS FREE --><svg id="Layer_1" enable-background="new 0 0 53 53" viewBox="0 0 53 53" xmlns="http://www.w3.org/2000/svg"><g id="_x37_8"><g><g><g><path d="m49.0849495 50.1425781c-.4140625 0-.75-.3359375-.75-.75v-3.2788086c0-.4140625.3359375-.75.75-.75s.75.3359375.75.75v3.2788086c0 .4140625-.3359375.75-.75.75z" fill="#5b5e8b"></path></g></g></g><g><g><g><g><path d="m42.433094 46.1102905v3.2799683c0 .4200439-.3400269.75-.75.75s-.75-.3299561-.75-.75v-3.2799683c0-.4100342.3400269-.75.75-.75s.75.3399658.75.75z" fill="#5b5e8b"></path></g></g></g><g><g><g><path d="m34.8630867 46.1102905v3.2799683c0 .4200439-.3399658.75-.75.75-.4199829 0-.75-.3299561-.75-.75v-3.2799683c0-.4100342.3300171-.75.75-.75.4100342 0 .75.3399658.75.75z" fill="#5b5e8b"></path></g></g></g><g><g><g><path d="m27.2830696 46.1102905v3.2799683c0 .4200439-.3299561.75-.75.75-.4099731 0-.75-.3299561-.75-.75v-3.2799683c0-.4100342.3400269-.75.75-.75.420044 0 .75.3399658.75.75z" fill="#5b5e8b"></path></g></g></g><g><g><g><path d="m19.7131233 46.1102905v3.2799683c0 .4200439-.3300171.75-.75.75-.4100342 0-.75-.3299561-.75-.75v-3.2799683c0-.4100342.3399658-.75.75-.75.4199829 0 .75.3399658.75.75z" fill="#5b5e8b"></path></g></g></g><g><g><g><path d="m12.143117 46.1102905v3.2799683c0 .4200439-.3400269.75-.75.75-.4200439 0-.75-.3299561-.75-.75v-3.2799683c0-.4100342.3299561-.75.75-.75.4099731 0 .75.3399658.75.75z" fill="#5b5e8b"></path></g></g></g></g><g><g><g><g><path d="m7.1130877 40.9902954c0 .4099731-.3300171.75-.75.75h-3.2799683c-.4100342 0-.75-.3400269-.75-.75 0-.4200439.3399658-.75.75-.75h3.2799683c.4199829 0 .75.3299561.75.75z" fill="#5b5e8b"></path></g></g></g><g><g><g><path d="m7.1130877 33.4202881c0 .4099731-.3300171.75-.75.75h-3.2799683c-.4100342 0-.75-.3400269-.75-.75 0-.4200439.3399658-.75.75-.75h3.2799683c.4199829 0 .75.329956.75.75z" fill="#5b5e8b"></path></g></g></g><g><g><g><path d="m7.1130877 25.840271c0 .4199829-.3300171.75-.75.75h-3.2799683c-.4100342 0-.75-.3300171-.75-.75 0-.4099731.3399658-.75.75-.75h3.2799683c.4199829 0 .75.3400269.75.75z" fill="#5b5e8b"></path></g></g></g><g><g><g><path d="m7.1130877 18.2702637c0 .4100342-.3300171.75-.75.75h-3.2799683c-.4100342 0-.75-.3399658-.75-.75 0-.4099731.3399658-.75.75-.75h3.2799683c.4199829 0 .75.3400268.75.75z" fill="#5b5e8b"></path></g></g></g><g><g><g><path d="m7.1130877 10.7002563c0 .4100342-.3300171.75-.75.75h-3.2799683c-.4100342 0-.75-.3399658-.75-.75 0-.4199829.3399658-.75.75-.75h3.2799683c.4199829 0 .75.3300171.75.75z" fill="#5b5e8b"></path></g></g></g></g><g><g><g><path d="m3.0831194 9.9502563h1.75v1.5h-1.75c-.4100342 0-.75-.3399658-.75-.75 0-.4199829.3399658-.75.75-.75z" fill="#312e4b"></path></g></g><g><g><path d="m3.0831194 17.5202637h1.75v1.5h-1.75c-.4100342 0-.75-.3399658-.75-.75 0-.4099732.3399658-.75.75-.75z" fill="#312e4b"></path></g></g><g><g><path d="m3.0831194 25.090271h1.75v1.5h-1.75c-.4100342 0-.75-.3300171-.75-.75 0-.4099731.3399658-.75.75-.75z" fill="#312e4b"></path></g></g><g><g><path d="m3.0831194 32.6702881h1.75v1.5h-1.75c-.4100342 0-.75-.3400269-.75-.75 0-.420044.3399658-.75.75-.75z" fill="#312e4b"></path></g></g><g><g><path d="m3.0831194 40.2402954h1.75v1.5h-1.75c-.4100342 0-.75-.3400269-.75-.75 0-.4200439.3399658-.75.75-.75z" fill="#312e4b"></path></g></g><g><g><path d="m10.643117 47.7502441h1.5v1.6400146c0 .4200439-.3400269.75-.75.75-.4200439 0-.75-.3299561-.75-.75z" fill="#312e4b"></path></g></g><g><g><path d="m18.2131233 47.7502441h1.5v1.6400146c0 .4200439-.3300171.75-.75.75-.4100342 0-.75-.3299561-.75-.75z" fill="#312e4b"></path></g></g><g><g><path d="m25.7830696 47.7502441h1.5v1.6400146c0 .4200439-.3299561.75-.75.75-.4099731 0-.75-.3299561-.75-.75z" fill="#312e4b"></path></g></g><g><g><path d="m33.3630867 47.7502441h1.5v1.6400146c0 .4200439-.3399658.75-.75.75-.4199829 0-.75-.3299561-.75-.75z" fill="#312e4b"></path></g></g><g><g><path d="m42.433094 47.7502441v1.6400146c0 .4200439-.3400269.75-.75.75s-.75-.3299561-.75-.75v-1.6400146z" fill="#312e4b"></path></g></g><g><g><path d="m49.0849495 50.25h-46c-.4140625 0-.75-.3359375-.75-.75v-46c0-.4140625.3359375-.75.75-.75h3.2792969c.4140625 0 .75.3359375.75.75s-.3359375.75-.75.75h-2.529296v44.5h45.25c.4140625 0 .75.3359375.75.75s-.3359384.75-.7500009.75z" fill="#5b5e8b"></path></g></g></g><g><g><g><path d="m47.0117073 44.0056915h-4.4284172c-.7211609 0-1.3057785-.5846176-1.3057785-1.3057785v-24.059351h7.039978v24.059351c0 .7211609-.5846176 1.3057785-1.3057823 1.3057785z" fill="#e83d62"></path></g></g><g><g><path d="m48.3166275 19.4703693c-2.9216042 0-5.2900314 2.3684292-5.2900314 5.2900352 0 20.229517-.0417099 18.9205341.0900269 19.2499447h-.5300293c-.7205009 0-1.3099976-.5895004-1.3099976-1.3099976v-24.0599994h7.0400391v.8300171z" fill="#ce2955"></path></g></g><g><g><path d="m49.4599304 18.6405621h-9.311615c-.9896927 0-1.5572281-1.1271801-.9678535-1.9222431l4.6558075-6.280652c.4816589-.6497545 1.4540443-.6497545 1.9357033 0l4.6558075 6.280652c.5893745.795063.0218391 1.9222431-.9678498 1.9222431z" fill="#e83d62"></path></g></g><g><g><path d="m40.9266205 16.7203693c-.5900269.789978-.0200195 1.9199829.9700317 1.9199829h-1.75c-.9900513 0-1.5600586-1.1300049-.9700317-1.9199829l4.6599731-6.2800283c.4500122-.6199951 1.3500366-.6499634 1.8500366-.0999756-.0499878.0299683-.0700073.0599976-.1000366.0999756z" fill="#ce2955"></path></g></g></g><g><g><g><path d="m17.3520451 43.9590721h-4.4284182c-.7211628 0-1.3057804-.5846176-1.3057804-1.3057785l.0018864-7.4637985h7.039979l-.0018864 7.4637985c0 .7211609-.5846176 1.3057785-1.3057804 1.3057785z" fill="#fcb73e"></path></g></g><g><g><path d="m18.6588516 36.0193024c-2.9216051 0-5.2900343 2.3684311-5.2900343 5.2900352 0 2.2519264-.0389385 2.336628.0881405 2.6543922h-.5300293c-.7204981 0-1.3099976-.5895004-1.3099976-1.3099976l.0018864-7.464447h7.04004v.8300171h-.0000057z" fill="#fd982e"></path></g></g><g><g><path d="m19.8021526 35.1894951h-9.3116159c-.9896898 0-1.5572271-1.127182-.9678526-1.9222412l4.6558075-6.2806549c.4816589-.6497536 1.4540462-.6497536 1.9357052 0l4.6558075 6.2806549c.5893745.7950592.0218372 1.9222412-.9678517 1.9222412z" fill="#fcb73e"></path></g></g><g><g><path d="m11.2688417 33.2693024c-.5900269.789978-.0200195 1.9199829.9700317 1.9199829h-1.75c-.9900513 0-1.5600586-1.1300049-.9700317-1.9199829l4.6599731-6.2800293c.4500122-.6199951 1.3500366-.6499634 1.8500376-.0999756-.0499887.0299683-.0700083.0599976-.1000376.0999756z" fill="#fd982e"></path></g></g></g><g><g><g><path d="m32.1324539 43.9932327h-4.4284172c-.7211628 0-1.3057804-.5846176-1.3057804-1.3057785l.0018864-15.3443356h7.039978l-.0018883 15.3443356c0 .7211609-.5846176 1.3057785-1.3057785 1.3057785z" fill="#46cc6b"></path></g></g><g><g><path d="m33.4392586 28.1729259c-2.9216042 0-5.2900314 2.3684292-5.2900314 5.2900333 0 10.9851913-.0418682 10.2098427.0881405 10.5349312h-.5300293c-.720499 0-1.3099976-.5895004-1.3099976-1.3099976l.0018864-15.3449841h7.0400391v.8300171h-.0000077z" fill="#34ba5d"></path></g></g><g><g><path d="m34.5825615 27.3431187h-9.311615c-.9896908 0-1.5572281-1.1271801-.9678535-1.9222431l4.6558075-6.280653c.4816589-.6497536 1.4540462-.6497536 1.9357052 0l4.6558094 6.280653c.5893745.795063.0218353 1.9222431-.9678536 1.9222431z" fill="#46cc6b"></path></g></g><g><g><path d="m26.0492516 25.4229259c-.5900269.789978-.0200195 1.9199829.9700317 1.9199829h-1.75c-.9900513 0-1.5600586-1.1300049-.9700317-1.9199829l4.6599731-6.2800293c.4500122-.6199951 1.3500366-.6499634 1.8500366-.0999756-.0499878.0299683-.0700073.0599976-.1000366.0999756z" fill="#34ba5d"></path></g></g></g><g><g><path d="m19.9364681 10.770505c0 2.80653-2.2751427 5.0816727-5.0816736 5.0816727s-5.0816717-2.2751427-5.0816717-5.0816727c0-2.2330427 3.2170773-6.1963744 4.5318336-7.7228699.2905607-.3373549.8091164-.3373549 1.0996771 0 1.3147574 1.5264954 4.5318346 5.4898271 4.5318346 7.7228699z" fill="#65b9ff"></path></g></g><g><g><path d="m15.9822283 15.7249308c-.3599854.0900269-.7399902.1300049-1.1300049.1300049-2.7999878 0-5.0800171-2.2800293-5.0800171-5.0800171 0-2.2399902 3.2200317-6.2000117 4.5300293-7.72998.289978-.3300171.8099976-.3300171 1.0999756 0 .1700439.1900024.3600464.4299927.5800171.6900024-1.5 1.8099976-3.960022 5.0800166-3.960022 7.0399776 0 2.4100341 1.7000122 4.4400024 3.960022 4.9500122z" fill="#3e7fff"></path></g></g></g></svg>