<!-- icon666.com - MILLIONS vector ICONS FREE --><svg id="Layer_1" enable-background="new 0 0 53 53" viewBox="0 0 53 53" xmlns="http://www.w3.org/2000/svg"><g id="_x36_7"><g><g><g><g><path d="m34.135 9.145h1.989v34.667h-1.989z" fill="#ab604b"></path></g></g><g><g><path d="m34.135 10.681h1.989v31.595h-1.989z" fill="#c7754f"></path></g></g><g><g><path d="m6.467 9.145h1.989v34.522h-1.989z" fill="#ab604b"></path></g></g></g><g><g><path d="m38.803463 45.3497925.6777458 3.5676422c.1452637.7646751-.4410133 1.4728127-1.2193642 1.4728127h-33.9333572c-.7783484 0-1.3646274-.7081375-1.2193625-1.4728127l.6777453-3.5676422c.185436-.9761353 1.0386794-1.6825485 2.0322707-1.6825485h30.9520493c.9935918 0 1.8468365.7064132 2.0322728 1.6825485z" fill="#c7754f"></path></g></g><g><g><path d="m8.7040815 50.3944473h-4.3800053c-.7699585 0-1.3599854-.710022-1.2099609-1.4800415l.6699829-3.5599976c.1900024-.9799805 1.039978-1.6900024 2.039978-1.6900024h4.3699956c-.9899902 0-1.8499756.710022-2.0299683 1.6900024l-.6799932 3.5599976c-.1500244.7700196.4400025 1.4800415 1.2199712 1.4800415z" fill="#ab604b"></path></g></g><g><g><path d="m3.7869816 7.458014-.677697-3.5676281c-.1452546-.764669.4410341-1.4728053 1.2193826-1.4728058l33.9333644-.0000121c.7783508-.0000002 1.3646202.7081356 1.2193451 1.4728048l-.6777954 3.5676289c-.1854515.9761291-1.0387039 1.6825385-2.0322952 1.6825385l-30.9520565.0000114c-.9935913.0000009-1.8468254-.7064085-2.032248-1.6825376z" fill="#c7754f"></path></g></g><g><g><path d="m10.1940718 9.1444483h-4.3699956c-1 0-1.8499756-.710022-2.039978-1.6900029l-.669983-3.5599976c-.1500244-.7700195.4400025-1.4800415 1.209961-1.4800415h4.3800054c-.7799687 0-1.3699956.710022-1.2199712 1.4800415l.6799932 3.5599976c.1799926.9799809 1.0399779 1.6900029 2.0299682 1.6900029z" fill="#ab604b"></path></g></g><g><g><path d="m31.9662914 9.1385155v6.1400146c0 .9799805-.3399658 1.9199829-.9699707 2.6699829l-5.1900024 6.2199707c-.6400146.7700195-.6400146 1.9000244 0 2.6700439l5.1900024 6.2199707c.6300049.75.9699707 1.6900024.9699707 2.6700439v7.9399414h-21.3999634v-7.9399414c0-.9800415.3399658-1.9200439.9699707-2.6700439l5.1900024-6.2199707c.6500244-.7700195.6500244-1.9000244 0-2.6700439l-5.1900024-6.2199707c-.6300049-.75-.9699707-1.6900024-.9699707-2.6699829v-6.1400146z" fill="#deddff"></path></g></g><g><g><path d="m10.566 9.139h21.4v1.313h-21.4z" fill="#c6c6f7"></path></g></g><g><g><path d="m10.566 42.351h21.4v1.313h-21.4z" fill="#c6c6f7"></path></g></g><g><g><path d="m15.5970907 43.67939v-.0000038c0-2.521904 2.5633173-3.0768051 2.4369135-2.996582 1.069252-.2226372 1.8355827-1.1649704 1.8355827-2.2571564v-13.2257729c0-.7544117-.2663212-1.4846058-.752018-2.0618706l-6.4370775-7.6506357c-.2428484-.2886324-.376009-.6537294-.376009-1.0309353v-1.9122c0-.5895834.477952-1.0675354 1.0675354-1.0675354h15.1896639c.5895824 0 1.0675354.477952 1.0675354 1.0675354v1.9122c0 .3772058-.1331615.7423029-.3760109 1.0309353l-6.4370766 7.6506357c-.4856968.5772648-.752018 1.3074589-.752018 2.0618706v13.2257729c0 1.8824959 1.9529171 2.3316193 1.8355885 2.2571564 1.4195328.2955742 2.4369068 1.5466042 2.4369068 2.996582v.0000038z" fill="#fcb73e"></path></g></g><g><g><path d="m12.3044825 12.5484886c.0768051 1.5656052-.212863 2.2357397.3699951 2.9400024l6.4400015 7.6500244c.4900513.5800171.75 1.3099976.75 2.0599976v13.2299805c0 1.0900269-.7599487 2.0300293-1.8299561 2.25-1.3507862.2854156-2.4400015 1.4835014-2.4400015 3h1.1900015c0-1.490387 1.0450916-2.7073784 2.4299927-3 1.0700073-.2199707 1.8399658-1.1599731 1.8399658-2.25v-13.2299805c0-.75-.2699585-1.4799805-.75-2.0599976-6.5010242-7.9118557-6.8199453-7.6661062-6.8199453-8.6799927v-1.9100342c0-.5899658.4799805-1.0699463 1.0699463-1.0699463h-1.1900025c-.579956.0000001-1.0599975.4799806-1.0599975 1.0699464z" fill="#fd982e"></path></g></g><g><g><path d="m25.7575512 35.9922714c0 .4325867-.3505116.7831459-.7830982.7831459s-.7756786-.3505592-.7756786-.7831459c0-.4251175.343092-.775631.7756786-.775631s.7830982.3505135.7830982.775631z" fill="#fcb73e"></path></g></g><g><g><path d="m18.3079262 35.9932518c0 .3198471-.259161.5790405-.5790062.5790405s-.5735207-.2591934-.5735207-.5790405c0-.3143272.2536755-.5734863.5735207-.5734863s.5790062.2591591.5790062.5734863z" fill="#fcb73e"></path></g></g><g><g><path d="m28.5606747 40.1625443c0 .3264389-.2645035.5909767-.5909424.5909767-.326437 0-.5853424-.2645378-.5853424-.5909767 0-.3208046.2589054-.5853081.5853424-.5853081.3264389 0 .5909424.2645035.5909424.5853081z" fill="#fcb73e"></path></g></g><g><g><path d="m16.3077869 38.874382c0 .4641495-.3760881.8402863-.8402386.8402863-.4641514 0-.8322773-.3761368-.8322773-.8402863 0-.4561424.3681259-.8322296.8322773-.8322296.4641505 0 .8402386.3760872.8402386.8322296z" fill="#fcb73e"></path></g></g><g><g><path d="m17.9294262 15.1016483c0 .4325867-.3505116.783144-.7830982.783144s-.7756786-.3505573-.7756786-.783144c0-.4251213.343092-.7756329.7756786-.7756329s.7830982.3505116.7830982.7756329z" fill="#fd982e"></path></g></g><g><g><path d="m22.4034405 17.7189713c0 .2728424-.2210751.4939461-.4939175.4939461-.2728405 0-.4892368-.2211037-.4892368-.4939461 0-.2681332.2163963-.4892082.4892368-.4892082.2728424-.0000001.4939175.221075.4939175.4892082z" fill="#fd982e"></path></g></g><g><g><path d="m25.2003155 14.9299383c0 .1991262-.1613464.3604937-.3604717.3604937-.1991272 0-.3570576-.1613674-.3570576-.3604937 0-.1956902.1579304-.3570356.3570576-.3570356.1991252 0 .3604717.1613455.3604717.3570356z" fill="#fd982e"></path></g></g><g><g><path d="m21.748909 13.9272509c0 .326438-.2645035.5909758-.5909405.5909758-.3264389 0-.5853424-.2645378-.5853424-.5909758 0-.3208046.2589035-.5853081.5853424-.5853081.326437 0 .5909405.2645035.5909405.5853081z" fill="#fd982e"></path></g></g></g><g><g><g><path d="m49.9130669 47.3781853v1.4956627c0 .9441605-.7675819 1.7117462-1.7117004 1.7117462h-13.6546098c-.9441147 0-1.7117004-.7675858-1.7117004-1.7117462v-1.4956627c0-.9441643.7675858-1.71175 1.7117004-1.71175h13.6546097c.9441185-.0000001 1.7117005.7675857 1.7117005 1.71175z" fill="#fdb73e"></path></g></g><g><g><path d="m45.6560669 45.6667213h-11.1106262c-.6024857 0-1.1298256.3129539-1.4347229.7835617h12.5453491z" fill="#fd982e"></path></g></g><g><g><path d="m49.9130669 42.4590263v1.4957085c0 .9441147-.7675819 1.7117004-1.7117004 1.7117004h-13.6546098c-.9441147 0-1.7117004-.7675858-1.7117004-1.7117004v-1.4957085c0-.9441147.7675858-1.7117004 1.7117004-1.7117004h13.6546097c.9441185 0 1.7117005.7675858 1.7117005 1.7117004z" fill="#fdb73e"></path></g></g><g><g><path d="m36.6070175 50.584568h-2.0647621c-.9441147 0-1.7042046-.759903-1.7042046-1.71175v-1.4956627c0-.9441605.7600899-1.7117462 1.7042046-1.7117462h2.0647621c-.9441185 0-1.7117004.7675858-1.7117004 1.7117462v1.4956627c0 .9518471.7675819 1.71175 1.7117004 1.71175z" fill="#fd982e"></path></g></g><g><g><path d="m36.6070175 45.6654091h-2.0647621c-.9441147 0-1.7042046-.7675858-1.7042046-1.7117004v-1.4957085c0-.9441147.7600899-1.7117004 1.7042046-1.7117004h2.0647621c-.9441185 0-1.7117004.7675858-1.7117004 1.7117004v1.4957085c0 .9441146.7675819 1.7117004 1.7117004 1.7117004z" fill="#fd982e"></path></g></g><g><g><path d="m45.6560669 44.8751488h-12.5453491c.3048973.4706039.8322372.7835617 1.4347229.7835617h11.1106262z" fill="#fd982e"></path></g></g><g><g><path d="m49.9130669 37.5396309v1.4956627c0 .9441643-.7675819 1.71175-1.7117004 1.71175h-13.6546098c-.9441147 0-1.7117004-.7675858-1.7117004-1.71175v-1.4956627c0-.9441605.7675858-1.7117462 1.7117004-1.7117462h13.6546097c.9441185 0 1.7117005.7675857 1.7117005 1.7117462z" fill="#fdb73e"></path></g></g><g><g><path d="m45.6560669 35.8281708h-11.1106262c-.6024857 0-1.1298256.3129539-1.4347229.7835579h12.5453491z" fill="#fd982e"></path></g></g><g><g><path d="m49.9130669 32.6204758v1.4957085c0 .9441147-.7675819 1.7117004-1.7117004 1.7117004h-13.6546098c-.9441147 0-1.7117004-.7675858-1.7117004-1.7117004v-1.4957085c0-.9441166.7675858-1.7117023 1.7117004-1.7117023h13.6546097c.9441185-.0000001 1.7117005.7675857 1.7117005 1.7117023z" fill="#fdb73e"></path></g></g><g><g><path d="m36.6070175 40.7460136h-2.0647621c-.9441147 0-1.7042046-.759903-1.7042046-1.7117462v-1.4956627c0-.9441605.7600899-1.7117462 1.7042046-1.7117462h2.0647621c-.9441185 0-1.7117004.7675858-1.7117004 1.7117462v1.4956627c0 .9518433.7675819 1.7117462 1.7117004 1.7117462z" fill="#fd982e"></path></g></g><g><g><path d="m36.6070175 35.8268585h-2.0647621c-.9441147 0-1.7042046-.7675858-1.7042046-1.7117004v-1.4957123c0-.9441128.7600899-1.7116985 1.7042046-1.7116985h2.0647621c-.9441185 0-1.7117004.7675858-1.7117004 1.7116985v1.4957123c0 .9441147.7675819 1.7117004 1.7117004 1.7117004z" fill="#fd982e"></path></g></g><g><g><path d="m45.6560669 35.0365982h-12.5453491c.3048973.4706039.8322372.7835579 1.4347229.7835579h11.1106262z" fill="#fd982e"></path></g></g></g><g><g><path d="m45.6560669 40.7575264h-11.1106262c-.6024857 0-1.1298256.3129578-1.4347229.7835617h12.5453491z" fill="#fd982e"></path></g></g><g><g><path d="m45.6560669 39.9659538h-12.5453491c.3048973.4706039.8322372.7835617 1.4347229.7835617h11.1106262z" fill="#fd982e"></path></g></g></g></svg>