<!-- icon666.com - MILLIONS vector ICONS FREE -->
<svg viewBox="0 0 512 512" xmlns="http://www.w3.org/2000/svg"><g id="Filled_outline" data-name="Filled outline"><rect height="296" rx="24" width="400" x="56" y="176" fill="#3E7FFF"/><path d="m408 176h24v296h-24z" fill="#3E7FFF"/><path d="m408 136v328h-304v-328a24.006 24.006 0 0 1 24-24h256a24.006 24.006 0 0 1 24 24z" fill="#65B9FF"/><path d="m408 136v328h-304v-84.12l272.42-267.88h7.58a24.006 24.006 0 0 1 24 24z" fill="#50AEFD"/><path d="m488 56v200a32 32 0 0 1 -32 32h-32l-56 56v-56h-104a32 32 0 0 1 -32-32v-200a32 32 0 0 1 32-32h192a31.968 31.968 0 0 1 32 32z" fill="#E83D62" style=""/><path d="m488 56v200a32 32 0 0 1 -32 32h-32l-56 56v-56h-104a32 32 0 0 1 -32-32v-46.24c98.16-23.59 190.45-73.93 253.61-165.92a31.952 31.952 0 0 1 2.39 12.16z" fill="#CE2955"/><path d="m344 192.4a55.231 55.231 0 0 1 16.285-39.314l24.8-24.8a23.6 23.6 0 0 0 -16.685-40.286h-16.8a23.625 23.625 0 0 0 -23.6 23.6v16.4h-32v-16.4a55.661 55.661 0 0 1 55.6-55.6h16.8a55.6 55.6 0 0 1 39.313 94.912l-24.8 24.8a23.444 23.444 0 0 0 -6.913 16.688z" fill="#ffb531"/><path d="m344 224h32v32h-32z" fill="#ffb531"/><path d="m304 448a27.315 27.315 0 0 1 -19.314 8h-57.372a27.315 27.315 0 0 1 -19.314-8 27.315 27.315 0 0 0 -19.314-8h-164.686v24a24 24 0 0 0 24 24h416a24 24 0 0 0 24-24v-24h-164.686a27.315 27.315 0 0 0 -19.314 8z" fill="#5B5E8B"/><path d="m408 440v24a24 24 0 0 1 -24 24h80a24 24 0 0 0 24-24v-24z" fill="#312E4B"/><path d="m128 136h16v16h-16z" fill="#236CFE"/><path d="m160 136h16v16h-16z" fill="#236CFE"/><path d="m192 136h16v16h-16z" fill="#236CFE"/><path d="m152 216a24 24 0 1 0 24 24 24.027 24.027 0 0 0 -24-24zm0 32a8 8 0 1 1 8-8 8.009 8.009 0 0 1 -8 8z" fill="#236CFE"/><path d="m192 248h16v16h-16z" fill="#236CFE"/><path d="m152 280a24 24 0 1 0 24 24 24.027 24.027 0 0 0 -24-24zm0 32a8 8 0 1 1 8-8 8.009 8.009 0 0 1 -8 8z" fill="#236CFE"/><path d="m192 280h24v16h-24z" fill="#236CFE"/><path d="m192 312h152v16h-152z" fill="#236CFE"/><path d="m152 344a24 24 0 1 0 24 24 24.027 24.027 0 0 0 -24-24zm0 32a8 8 0 1 1 8-8 8.009 8.009 0 0 1 -8 8z" fill="#236CFE"/><path d="m192 344h152v16h-152z" fill="#236CFE"/><path d="m192 376h112v16h-112z" fill="#236CFE"/><path d="m320 376h48v16h-48z" fill="#236CFE"/><path d="m192 216h16v16h-16z" fill="#236CFE"/><path d="m128 168h80v16h-80z" fill="#236CFE"/></g></svg>