<!-- icon666.com - MILLIONS vector ICONS FREE --><svg id="Layer_1" enable-background="new 0 0 53 53" viewBox="0 0 53 53" xmlns="http://www.w3.org/2000/svg"><g id="_x36_5"><g><g><path d="m20.2572613 23.4990692v16.4146347h4.1443233v-11.1801014c0-.6021061.4881039-1.0902081 1.09021-1.0902081h2.8848667c.6021042 0 1.0902081.488102 1.0902081 1.0902081v5.5556583h4.2978172v-6.9164124c0-2.1394291-1.7343483-3.8737793-3.8737793-3.8737793h-9.633646z" fill="#5b5e8b"></path></g></g><g><g><path d="m20.257 37.352h4.144v2.562h-4.144z" fill="#312e4b"></path></g></g><g><g><path d="m29.467 32.352h4.298v1.937h-4.298z" fill="#312e4b"></path></g></g><g><g><path d="m20.2584248 23.498642v-7.3059177c0-.3163691-.3766747-.4811707-.6090317-.2664614l-3.1640053 2.9237013c-.1755753.162241-.3006554.3716621-.3602524.6031723l-1.9789505 4.6602802-2.4833946-.5124474 1.5698881-5.5382404c.158474-.559063.4704094-1.062542.9004412-1.4533577l4.3544903-3.9573841c.5797787-.5269051 1.3351002-.8188505 2.1185379-.8188505h8.9554749c.764183 0 1.5023098.2778015 2.0768661.7816496l3.4176483 2.997057c.2930374.2569761.7314835.2558365 1.0231819-.0026608l3.8963585-2.5018587 1.9994736 1.6054258-5.0235252 4.3964081c-.9606018.8406811-2.4033546.8116112-3.3293114-.0670834l-3.6952286-3.5066223c-.2311535-.2193546-.612545-.0554953-.612545.2631712v7.7000189z" fill="#65b9ff"></path></g></g><g><g><path d="m29.3190174 22.4792633v1.0200195h-9.0599976v-7.3400268h1.0199585v3.9712524c0 1.2971821 1.0515747 2.3487549 2.3487549 2.3487549z" fill="#3e7fff"></path></g></g><g><g><path d="m21.629015 11.8292398c-.7900391 0-1.5400391.3000488-2.1199951.8200073l-4.3600454 3.960021c-.4303942.3909073-.7425756.8946476-.901104 1.4540367l-1.1373377 4.0132446c-.2330914.8224945.281229 1.6698647 1.1184568 1.8427162h.0000019l-.0800171.1900024-2.4899902-.5100098 1.5688095-5.5357513c.1585503-.5594654.4707718-1.0632763.9012222-1.4542389l4.3599844-3.960021c1.2282105-1.101033 2.5996494-.7566727 3.1400147-.8200072z" fill="#3e7fff"></path></g></g><g><g><g><path d="m26.2685585 10.9729595v1.2536154c0 .8659286-.7043571 1.5670528-1.5637989 1.5670528-.8430099 0-1.5670528-.6760616-1.5670528-1.5670528v-1.2536154z" fill="#ffaf93"></path></g></g><g><g><path d="m27.5706673 5.2475948c-.0359325 3.4413881.070116 3.8458662-.0743275 4.4555597-.2875443 1.2794876-1.4281025 2.2294064-2.7915802 2.2294064-1.5843639 0-2.8691406-1.2826891-2.8691406-2.8691406v-3.8158255z" fill="#ffaf93"></path></g></g><g><g><path d="m28.1836357 8.451189v-3.4741621s.0572681-1.7561693-2.2906551-2.2524781c-2.7451344-.5802722-2.9492188.668108-2.9492188.668108h-.3245106c-.7801418 0-1.412571.6324296-1.412571 1.412571v3.6459612h.6299305v-1.9375147c0-1.1499929 1.2894726-1.230947 1.183506-1.1835041.1005344.0749588.5967178.7826405 1.6717987.7826405h2.4720612c.2240276 0 .4056377.1816101.4056377.4056373v1.932741z" fill="#ab604b"></path></g></g><g><g><path d="m22.6756744 3.3926613h-.0564194c-.7801456 0-1.4125824.6324179-1.4125824 1.4125626v3.6459718h.6299324v-1.9375229c0-.5327897.3548508-.9770341.8390694-1.1252933z" fill="#8b4f4f"></path></g></g><g><g><path d="m28.5808258 8.3272858c0 .5623426-.4510174 1.0133257-1.0133266 1.0133257v-2.0210777c.5623092 0 1.0133266.4509821 1.0133266 1.007752z" fill="#ffaf93"></path></g></g><g><g><path d="m27.8378735 7.3601441c-.0865135-.0237832-.1759663-.0406046-.2703686-.0406046v2.0210786c.0944023 0 .1838551-.0168409.2703686-.0406437z" fill="#ee8778"></path></g></g><g><g><path d="m24.0836411 13.3240166.0122375.0122395c.2287064.2287054.5227699.387989.8576641.4329071-.8811016.1763821-1.8174038-.5340176-1.8174038-1.5437546v-.7596264c-.8503342-.5600529-1.2987232-1.4661684-1.2987232-2.4014196l.0127277.2827244c-.5636005 0-1.0296497-.4583597-1.0296497-1.0219355 0-.3185673.1511078-.604455.3839016-.7882419.1756096-.1388435.3920517-.2164412.6330204-.2164412v-.8045697c0-.5309205.3471336-.9801555.8331375-1.1312633v3.6797271c0 1.1982841.7359657 2.2579365 1.8428993 2.680234.3806915.1452351.8120918.1474991 1.1942043.0060415.1985493-.0735035.3866024-.1687078.560936-.2807932v.4941788c-.5796013.3074436-1.23246.4217052-1.7234535.3839006-.5186825-.0245027-.8249855.6085186-.4614982.9760924z" fill="#ee8778"></path></g></g><g><g><g><g><path d="m24.9302807 8.6784239v.4096146c0 .1390562-.1125813.2516346-.2516365.2516346s-.2516346-.1125784-.2516346-.2516346v-.4096146c0-.1390543.1125793-.2516346.2516346-.2516346.1404609 0 .2516365.1143474.2516365.2516346z" fill="#ee8778"></path></g></g></g><g><g><path d="m23.804697 9.9855947c.0897675.4128046.4568005.7221451.8964939.722146.4396973.000001.8067265-.3093367.8964939-.7221413z" fill="#ee8778"></path></g></g></g><g><g><g><path d="m23.8911209 7.6703892c-.0578995-.266243-.2946243-.4657545-.5782146-.4657545-.2835922 0-.5203152.1995115-.5782127.4657545z" fill="#312e4b"></path></g></g><g><g><path d="m26.6715736 7.6703892c-.0578976-.266243-.2946243-.4657545-.5782146-.4657545-.2835922 0-.5203152.1995115-.5782127.4657545z" fill="#312e4b"></path></g></g></g></g><g><g><circle cx="40.83" cy="13.794" fill="#ffaf93" r="1.933"></circle></g></g><g><g><path d="m42.3489876 14.9792643c-.3499756.460022-.8999634.75-1.5199585.75-1.0700073 0-1.9300537-.8699951-1.9300537-1.9400024 0-.8400269.5400391-1.5599976 1.3000488-1.8200073-1.1657448 1.479617.3146896 3.6523827 2.1499634 3.0100097z" fill="#ee8778"></path></g></g><g><g><circle cx="13.145" cy="23.611" fill="#ffaf93" r="1.933"></circle></g></g><g><g><path d="m11.6698513 24.8505497c-.3773165-.4378757-.5467596-1.0360928-.4180098-1.6425724.2222023-1.0466805 1.251832-1.7073116 2.2985134-1.4851093.8217144.1744423 1.4138432.8522205 1.5103588 1.6496582-1.2074746-1.4502297-3.6371316-.4429875-3.3908624 1.4780235z" fill="#ee8778"></path></g></g><g><g><g><path d="m14.500989 50.4254417h-12v-3.253849c0-1.4077721 1.1412256-2.548996 2.5489986-2.548996h9.4510012v5.802845z" fill="#deddff"></path></g></g><g><g><path d="m7.6790032 44.619278c-1.4099731 0-2.5499878 1.1399536-2.5499878 2.5499878v3.2600098h-2.6300046v-3.2600098c0-1.4100342 1.1400146-2.5499878 2.5499876-2.5499878z" fill="#c6c6f7"></path></g></g><g><g><path d="m26.5009899 50.4254417h-12.0000009v-8.0352821c0-1.4077721 1.1412258-2.548996 2.5489988-2.548996h9.4510021z" fill="#deddff"></path></g></g><g><g><path d="m19.6790028 39.8392487c-1.4099731 0-2.5499878 1.1400146-2.5499878 2.5499878v8.0400391h-2.630004v-8.0400391c0-1.4099731 1.1400146-2.5499878 2.5499868-2.5499878z" fill="#c6c6f7"></path></g></g><g><g><path d="m38.500988 50.4254417h-11.9999981v-13.587181c0-1.4077721 1.1412239-2.5489998 2.5489979-2.5489998h9.4510002z" fill="#deddff"></path></g></g><g><g><path d="m31.6790028 34.2892609c-1.4099731 0-2.5499878 1.1400146-2.5499878 2.5499878v13.5900269h-2.6300049v-13.5900269c0-1.4099731 1.1400146-2.5499878 2.5499878-2.5499878z" fill="#c6c6f7"></path></g></g><g><g><path d="m50.500988 50.4254417h-12v-18.9610672c0-1.4077721 1.1412277-2.5489979 2.5489998-2.5489979h6.9020042c1.4077721 0 2.548996 1.1412258 2.548996 2.5489979z" fill="#deddff"></path></g></g><g><g><path d="m43.6790047 28.9192657c-1.4099731 0-2.5499878 1.1400146-2.5499878 2.5499878v18.960022h-2.6300049v-18.960022c0-1.4099731 1.1400146-2.5499878 2.5499878-2.5499878z" fill="#c6c6f7"></path></g></g></g><g><g><path d="m46.3025551 21.2468987-.4345245-.469902-4.5814705 4.2365494c-.2569542.237608-.6667328.2215786-.9111366-.0427246l-.9641075-1.0426025c-.2376099-.2569523-.2215805-.6667309.0353737-.9043388l4.5814705-4.2365494-.4345245-.4699001c-.4073792-.4405499-.1315918-1.158617.4720154-1.2128372l3.2599716-.3041382c.4685707-.0382519.8555222.3802052.7807846.8443527l-.5578499 3.2262573c-.1080018.5901755-.8386613.8163374-1.2460023.3758334z" fill="#e83d62"></path></g></g><g><g><path d="m44.7710266 17.8733883c-.6036034.0542221-.8793945.7722874-.4720116 1.2128372l.4344826.4698563-4.5814705 4.2365494c-.2569542.237608-.2729416.6474304-.0353317.9043846l-.7060738-.7635555c-.237648-.257-.2216187-.6667767.0353317-.9043846l4.5814743-4.2365494-.4345245-.469902c-.407341-.4405041-.1315918-1.1586151.4720116-1.2128372l3.2599754-.3041382c.4403229-.0394001.814827.3362007.7835922.7736721-.1004981-.0379258-.4224204.028654-3.3374557.2940673z" fill="#ce2955"></path></g></g><g><g><path d="m40.8249283 8.4632931-.4345245-.4699016-3.2914162 3.0771203c-.2569542.237608-.6667328.2215796-.9111366-.0427237l-.9641075-1.0426025c-.2376099-.2569532-.2215805-.6667309.0353737-.9043388l3.29142-3.0771203-.4345245-.4699016c-.407383-.4405494-.1315918-1.1586161.4720116-1.2128367l3.2599753-.3041382c.4685669-.0382524.8555183.3802047.7807846.8443527l-.5578537 3.2262578c-.1079979.5901747-.8386612.8163376-1.2460022.3758326z" fill="#46cc6b"></path></g></g><g><g><path d="m39.2934036 5.0897841c-.6036072.0542207-.8793945.7722874-.4720154 1.2128367l.4344864.4698567-3.29142 3.0771203c-.2569542.237608-.2729416.6474304-.0353317.9043837l-.7060738-.7635555c-.237648-.256999-.2216187-.6667767.0353355-.9043846l3.2914162-3.0771203-.4345245-.4699016c-.407341-.4405046-.1315918-1.1586161.4720154-1.2128363l3.2599716-.3041387c.4403229-.0394001.8148308.3361993.7835922.7736721-.1004981-.0379251-.4224204.0286528-3.3374519.2940675z" fill="#34ba5d"></path></g></g></g></svg>