<!-- icon666.com - MILLIONS vector ICONS FREE --><svg id="Layer_1" enable-background="new 0 0 53 53" viewBox="0 0 53 53" xmlns="http://www.w3.org/2000/svg"><g id="_x36_4"><g><g><path d="m49.8866882 10.8327684h-8.1210365v-7.2368691h8.1518974c.3310852 0 .548439.3459492.4047623.6442368-1.4901009 3.0935597-1.5565071 3.0638127-1.4081306 3.3442864l1.3696289 2.5889878c.1582908.2992097-.0586243.6593581-.3971215.6593581z" fill="#e83d62"></path></g></g><g><g><path d="m49.8839645 10.8342495h-8.1199951v-7.2399898h1.3099976v.0000057c0 3.1756339 2.5743599 5.7499938 5.7499924 5.7499938h1.0200272l.4399414.8299561c.1600341.3000488-.0599976.6600342-.3999635.6600342z" fill="#ce2955"></path></g></g><g><g><g><path d="m41.7656174 17.2652798c-.331543 0-.6000977-.2685547-.6000977-.6000977v-13.6225581c0-.331543.2685547-.6000977.6000977-.6000977s.6000976.2685547.6000976.6000977v13.6225586c0 .3315425-.2685547.6000972-.6000976.6000972z" fill="#5b5e8b"></path></g></g></g><g><g><path d="m38.8488922 50.5574722h-27.9681797c-.8917093 0-1.614583-.7228737-1.614583-1.6145821v-7.0775146c0-.8917084.7228737-1.6145821 1.614583-1.6145821h27.9681797c.8917084 0 1.6145821.7228737 1.6145821 1.6145821v7.0775146c0 .8917084-.7228737 1.6145821-1.6145821 1.6145821z" fill="#deddff"></path></g></g><g><g><path d="m14.6339636 50.5542221h-3.75c-.8900146 0-1.6199951-.7199707-1.6199951-1.6099854v-7.0800171c0-.8899536.7299805-1.6099854 1.6199951-1.6099854h3.75c-.8900146 0-1.6099854.7200317-1.6099854 1.6099854v7.0800171c0 .8900147.7199707 1.6099854 1.6099854 1.6099854z" fill="#c6c6f7"></path></g></g><g><g><path d="m32.5659523 33.8674698v6.3800049h-6.9099731v-2.3400269c0-.4299927-.3499756-.7700195-.7700195-.7700195-.4199829 0-.7699585.3400269-.7699585.7700195v2.3400269h-6.9000244v-6.3800049z" fill="#5b5e8b"></path></g></g><g><g><path d="m17.214 33.864h1.36v6.38h-1.36z" fill="#312e4b"></path></g></g><g><g><path d="m37.7359962 23.3674717c-.7300415.6699829-1.8600464.6400146-2.5500488-.0700073l-1.5299683-1.5800171-1.0900269-1.1300049v13.2800274h-15.3499755v-13.2800274l-1.1400146 1.1799927-1.4799805 1.5200195c-1.7140541 1.7886505-4.3318367-.8947239-2.5999756-2.5800171l1.9599609-1.9299927 2.3300171-2.289978c.5999756-.5800171 1.3900146-.9000244 2.2200317-.9000244h12.7599487c.8300171 0 1.6300049.3200073 2.2200317.9000244l2.289978 2.25 2.0100098 1.9699707c.7500001.7400513.7299806 1.9500122-.0499877 2.6600342z" fill="#46cc6b"></path></g></g><g><g><g><path d="m26.8482399 14.5211449v1.7751484c0 1.2261772-.9973888 2.2189846-2.2143784 2.2189846-1.1937237 0-2.2189846-.9573174-2.2189846-2.2189846v-1.7751484z" fill="#ffaf93"></path></g></g><g><g><path d="m28.6920547 6.4138904v5.4033008c0 .1281185-.0045795.2562094-.0183182.3797483-.0137119.1784391-.045742.3522711-.0869293.5261307-.6962662 3.0981665-4.5655918 4.2279434-6.8261795 1.9673548-.736599-.7366276-1.189539-1.7523069-1.189539-2.8732338v-5.4033008z" fill="#ffaf93"></path></g></g><g><g><path d="m29.5600338 10.9502563v-4.9194965s.0810909-2.4867785-3.2436237-3.1895635c-3.8871765-.8216796-4.1761646.9460568-4.1761646.9460568h-.4595146c-1.1046982 0-2.0002346.8955357-2.0002346 2.0002348v5.1627684h.8919964v-2.7435674c0-.9255576.7503128-1.6758704 1.6758709-1.6758704h.0000019l.0633831.0715246c.5842628.6593056 1.4229908 1.0367136 2.3039265 1.0367136h3.5004959c.3172283 0 .5743923.257164.5743923.5743918v2.7368078z" fill="#ab604b"></path></g></g><g><g><path d="m21.7606277 3.7872598h-.0798931c-1.104702 0-2.0002499.895519-2.0002499 2.0002224v5.1627846h.8920002v-2.7435798c0-.7544427.5024776-1.3835034 1.1881428-1.593442z" fill="#8b4f4f"></path></g></g><g><g><path d="m30.1224632 10.774807c0 .7962914-.638649 1.4348927-1.4348927 1.4348927v-2.8618947c.7962437 0 1.4348927.6386023 1.4348927 1.427002z" fill="#ffaf93"></path></g></g><g><g><path d="m29.0704269 9.4053106c-.1225071-.0336771-.2491741-.057497-.3828487-.057497v2.8618965c.1336746 0 .2603416-.0238476.3828487-.0575533z" fill="#ee8778"></path></g></g><g><g><path d="m23.7543411 17.8502979.0173302.0173321c.3238525.3238525.7402554.5494022 1.2144737.6130066-1.2476635.2497616-2.5734882-.7561817-2.5734882-2.1859951v-1.0756483c-1.2040939-.7930489-1.8390236-2.0761299-1.8390236-3.4004679l.0180206.4003448c-.7980709 0-1.4580078-.6490488-1.4580078-1.4470854 0-.4510984.2139721-.8559227.5436134-1.1161699.2486706-.1966057.5551567-.3064861.8963737-.3064861v-1.1392898c0-.7517962.4915504-1.3879237 1.1797409-1.6018958v5.2105823c0 1.6967993 1.0421543 3.1972952 2.6095905 3.7952757.5390701.205657 1.1499424.2088633 1.6910229.0085545.2811508-.1040812.5474396-.2388945.7943001-.3976088v.6997681c-.8207321.4353485-1.7451935.5971451-2.4404526.5436134-.7344664-.0346967-1.1681994.8616771-.6534938 1.3821696z" fill="#ee8778"></path></g></g><g><g><g><g><path d="m24.9532032 11.272027v.5800238c0 .196907-.1594162.3563213-.3563213.3563213s-.3563232-.1594143-.3563232-.3563213v-.5800238c0-.1969042.1594181-.3563204.3563232-.3563204.1988945 0 .3563213.1619187.3563213.3563204z" fill="#ee8778"></path></g></g></g><g><g><path d="m23.3593502 13.1230125c.1271133.5845423.646841 1.0225744 1.2694569 1.0225763.6226215.0000019 1.1423435-.4380293 1.2694588-1.0225706z" fill="#ee8778"></path></g></g></g><g><g><g><path d="m23.4817276 9.8446255c-.0819855-.3770065-.4171944-.6595192-.8187637-.6595192-.4015732 0-.7367802.2825127-.8187637.6595192z" fill="#312e4b"></path></g></g><g><g><path d="m27.4189167 9.8446255c-.0819855-.3770065-.4171944-.6595192-.8187637-.6595192-.4015732 0-.7367802.2825127-.8187656.6595192z" fill="#312e4b"></path></g></g></g></g><g><g><path d="m37.7359962 23.3674717c-.7300415.6699829-1.8600464.6400146-2.5500488-.0700073l-1.5299683-1.5800171c.0800171-.6400146.3699951-1.25.8399658-1.7199707l1.2800293-1.2600098 2.0100098 1.9699707c.75.7400513.7299805 1.9500122-.0499878 2.6600342z" fill="#34ba5d"></path></g></g><g><g><path d="m40.8238449 15.1674595-5.627224 5.5474472c-.7501717.7362442-.7293053 1.9510899.0457077 2.6611404l.0008659.0007935c.7320328.6706715 1.8648376.6370487 2.5558052-.0758572l5.8886032-5.9717541z" fill="#46cc6b"></path></g></g><g><g><path d="m16.0759621 21.7674351-1.4799805 1.5200195c-1.7140541 1.7886505-4.3318367-.8947239-2.5999756-2.5800171l1.9599609-1.9299927c.7893067.8971005 1.9576073 1.4577942 2.1199952 2.9899903z" fill="#34ba5d"></path></g></g><g><g><path d="m8.6509743 15.0007925 5.8820076 5.7246256c.7501717.7362442.7293062 1.9510899-.0457058 2.6611385l-.0008678.0007954c-.7320309.6706715-1.8648396.6370487-2.5558052-.0758572l-5.8886046-5.9717541z" fill="#46cc6b"></path></g></g><g><g><circle cx="7.422" cy="16.103" fill="#ffaf93" r="2.435"></circle></g></g><g><g><path d="m8.0459938 18.4574375c-.2000127.0500488-.4100347.0800171-.6199956.0800171-1.3500366 0-2.4400024-1.0899658-2.4400024-2.4299927 0-1.3499756 1.0899658-2.4400024 2.4400024-2.4400024.2099609 0 .4199829.0300293.6199956.0800171-2.4130568.6204119-2.4261627 4.0861797 0 4.7099609z" fill="#ee8778"></path></g></g><g><g><circle cx="41.766" cy="16.665" fill="#ffaf93" r="2.435"></circle></g></g><g><g><path d="m42.3897438 19.0199375c-1.6128159.4035721-3.0599976-.8059139-3.0599976-2.3499756 0-1.3499756 1.0899658-2.4400024 2.4400024-2.4400024.2099609 0 .4199829.0300293.6199951.0800171-2.4130553.6204119-2.4261626 4.0861797.0000001 4.7099609z" fill="#ee8778"></path></g></g><g><g><path d="m17.216 20.587h1.25v13.28h-1.25z" fill="#65b9ff"></path></g></g><g><g><path d="m32.5659523 32.4774551v1.3900146h-15.3499756v-13.2800273h1.25v4.4550171c0 4.1062355 3.3287621 7.4349957 7.4349976 7.4349957h6.664978z" fill="#34ba5d"></path></g></g><g><g><path d="m7.3463879 27.4969273h-.6400147v6.2400494c0 .3499756-.289978.6399536-.6499634.6399536h-1.4200439c-.3499756 0-.6399534-.289978-.6399534-.6399536v-6.2400494h-.6400146c-.6000366 0-.9400024-.6900024-.5700073-1.1699829l1.98999-2.5999756c.2900391-.3699951.8599854-.3699951 1.1500244 0l1.9899902 2.5999756c.3599853.4799804.0299682 1.1699829-.5700073 1.1699829z" fill="#65b9ff"></path></g></g><g><g><path d="m3.8297458 26.3249302c-.3699951.4800415-.0300293 1.1700439.5700073 1.1700439h.6399536v6.2399883c0 .3499756.2900391.6400146.6400146.6400146h-1.039978c-.3500366 0-.6400146-.2900391-.6400146-.6400146v-6.2399883h-.6400147c-.5999756 0-.9400024-.6900024-.5700073-1.1700439l1.9899902-2.5999756c.2700195-.3499756.8000488-.3699951 1.1000366-.0499878-.0200195.0100098-.0400391.0299683-.0599976.0499878z" fill="#3e7fff"></path></g></g><g><g><path d="m45.6847954 33.0019035h-.6400146v5.2400513c0 .3499756-.289978.6399536-.6499634.6399536h-1.4200439c-.3499756 0-.6399536-.289978-.6399536-.6399536v-5.2400513h-.6400146c-.6000366 0-.9400024-.6900024-.5700073-1.169981l1.9899902-2.5999756c.2900391-.3699951.8599854-.3699951 1.1500244 0l1.9899902 2.5999756c.3599853.4799786.0299682 1.169981-.5700074 1.169981z" fill="#e83d62"></path></g></g><g><g><path d="m42.1681519 31.8299065c-.3699951.4800415-.0300293 1.1700439.5700073 1.1700439h.6399536v5.2399902c0 .3499756.2900391.6400146.6400146.6400146h-1.039978c-.3500366 0-.6400146-.2900391-.6400146-.6400146v-5.2399902h-.6400146c-.5999756 0-.9400024-.6900024-.5700073-1.1700439l1.9899902-2.5999756c.2700195-.3499756.8000488-.3699951 1.1000366-.0499878-.0200195.0100098-.0400391.0299683-.0599976.0499878z" fill="#ce2955"></path></g></g></g></svg>